<svg aria-hidden="true" style="position: absolute; width: 0; height: 0; overflow: hidden;" version="1.1" xmlns="http://www.w3.org/2000/svg" xmlns:xlink="http://www.w3.org/1999/xlink">
<defs>
<symbol id="icon-clear" viewBox="0 0 24 24">
<path d="M18.984 6.422l-5.578 5.578 5.578 5.578-1.406 1.406-5.578-5.578-5.578 5.578-1.406-1.406 5.578-5.578-5.578-5.578 1.406-1.406 5.578 5.578 5.578-5.578z"></path>
</symbol>
<symbol id="icon-x-pack" viewBox="0 0 32 32">
<path fill="#005571" style="fill: var(--color1, #005571)" d="M18.267 26.067l7.84-7.853 4.467 4.48c0.862 0.861 1.395 2.052 1.395 3.367s-0.533 2.505-1.395 3.367l-1.107 1.107c-0.861 0.862-2.052 1.395-3.367 1.395s-2.505-0.533-3.367-1.395l-0-0zM30.56 2.533l-1.107-1.107c-0.861-0.862-2.052-1.395-3.367-1.395s-2.505 0.533-3.367 1.395l-0 0-6.72 6.733-6.733-6.733c-0.861-0.862-2.052-1.395-3.367-1.395s-2.505 0.533-3.367 1.395l-1.107 1.107c-0.862 0.861-1.395 2.052-1.395 3.367s0.533 2.505 1.395 3.367l6.733 6.733-6.733 6.733c-0.862 0.861-1.395 2.052-1.395 3.367s0.533 2.505 1.395 3.367l1.107 1.107c0.861 0.862 2.052 1.395 3.367 1.395s2.505-0.533 3.367-1.395l21.307-21.307c0.858-0.861 1.388-2.048 1.388-3.36 0-1.318-0.536-2.511-1.402-3.373l-0-0z"></path>
</symbol>
<symbol id="icon-search" viewBox="0 0 32 32">
<path d="M31.008 27.231l-7.58-6.447c-0.784-0.705-1.622-1.029-2.299-0.998 1.789-2.096 2.87-4.815 2.87-7.787 0-6.627-5.373-12-12-12s-12 5.373-12 12 5.373 12 12 12c2.972 0 5.691-1.081 7.787-2.87-0.031 0.677 0.293 1.515 0.998 2.299l6.447 7.58c1.104 1.226 2.907 1.33 4.007 0.23s0.997-2.903-0.23-4.007zM12 20c-4.418 0-8-3.582-8-8s3.582-8 8-8 8 3.582 8 8-3.582 8-8 8z"></path>
</symbol>
</defs>
</svg>
